<?xml version="1.0" standalone="no"?><!DOCTYPE svg PUBLIC "-//W3C//DTD SVG 1.1//EN" "http://www.w3.org/Graphics/SVG/1.1/DTD/svg11.dtd"><svg xmlns="http://www.w3.org/2000/svg" viewBox="0 0 650 400" version="1.1"><clipPath id="box"><rect x="0" y="0" width="650" height="400" style="fill:none;stroke:none;" /></clipPath><g clip-path="url(#box)"><rect x="0.00" y="0.00" width="650.00" height="400.00" style="fill:#FFFFFF;stroke:none;" /><path d="M325.00 0.00 L325.00 400.00 " style="fill:none;stroke:#000000;stroke-width:1;" /><path d="M318.50 400.00 L331.50 400.00 M318.50 350.00 L331.50 350.00 M318.50 300.00 L331.50 300.00 M318.50 250.00 L331.50 250.00 M318.50 200.00 L331.50 200.00 M318.50 150.00 L331.50 150.00 M318.50 100.00 L331.50 100.00 M318.50 50.00 L331.50 50.00 M318.50 0.00 L331.50 0.00 " style="fill:none;stroke:#000000;stroke-width:1;" /><path d="M0.00 200.00 L650.00 200.00 " style="fill:none;stroke:#000000;stroke-width:1;" /><path d="M-25.00 193.50 L-25.00 206.50 M25.00 193.50 L25.00 206.50 M75.00 193.50 L75.00 206.50 M125.00 193.50 L125.00 206.50 M175.00 193.50 L175.00 206.50 M225.00 193.50 L225.00 206.50 M275.00 193.50 L275.00 206.50 M325.00 193.50 L325.00 206.50 M375.00 193.50 L375.00 206.50 M425.00 193.50 L425.00 206.50 M475.00 193.50 L475.00 206.50 M525.00 193.50 L525.00 206.50 M575.00 193.50 L575.00 206.50 M625.00 193.50 L625.00 206.50 " style="fill:none;stroke:#000000;stroke-width:1;" /><path d="M475.00 200.00 L475.00 200.00 L474.99 198.50 L474.97 197.00 L474.93 195.50 L474.88 194.00 L474.81 192.50 L474.73 191.01 L474.63 189.51 L474.52 188.01 L474.39 186.52 L474.25 185.02 L474.09 183.53 L473.92 182.04 L473.73 180.55 L473.53 179.07 L473.32 177.58 L473.08 176.10 L472.84 174.62 L472.58 173.15 L472.30 171.67 L472.01 170.20 L471.70 168.73 L471.38 167.27 L471.05 165.80 L470.70 164.34 L470.34 162.89 L469.96 161.44 L469.57 159.99 L469.16 158.55 L468.74 157.11 L468.30 155.67 L467.85 154.24 L467.39 152.82 L466.91 151.39 L466.41 149.98 L465.91 148.57 L465.38 147.16 L464.85 145.76 L464.30 144.36 L463.74 142.97 L463.16 141.59 L462.57 140.21 L461.96 138.84 L461.34 137.47 L460.71 136.11 L460.07 134.76 L459.41 133.41 L458.74 132.07 L458.05 130.73 L457.35 129.41 L456.64 128.09 L455.91 126.77 L455.17 125.47 L454.42 124.17 L453.66 122.88 L452.88 121.60 L452.09 120.32 L451.29 119.06 L450.47 117.80 L449.64 116.55 L448.80 115.30 L447.95 114.07 L447.08 112.84 L446.20 111.63 L445.31 110.42 L444.41 109.22 L443.50 108.03 L442.57 106.85 L441.64 105.68 L440.69 104.52 L439.73 103.37 L438.75 102.22 L437.77 101.09 L436.78 99.97 L435.77 98.86 L434.75 97.75 L433.73 96.66 L432.69 95.58 L431.64 94.51 L430.58 93.45 L429.51 92.40 L428.42 91.36 L427.33 90.33 L426.23 89.31 L425.12 88.30 L424.00 87.31 L422.87 86.32 L421.72 85.35 L420.57 84.39 L419.41 83.44 L418.24 82.50 L417.06 81.57 L415.87 80.66 L414.68 79.76 L413.47 78.87 L412.25 77.99 L411.03 77.12 L409.79 76.27 L408.55 75.43 L407.30 74.60 L406.05 73.78 L404.78 72.98 L403.50 72.18 L402.22 71.41 L400.93 70.64 L399.64 69.89 L398.33 69.15 L397.02 68.42 L395.70 67.71 L394.37 67.01 L393.04 66.32 L391.70 65.65 L390.35 64.98 L389.00 64.34 L387.64 63.70 L386.27 63.09 L384.90 62.48 L383.52 61.89 L382.14 61.31 L380.75 60.74 L379.35 60.19 L377.95 59.66 L376.55 59.14 L375.14 58.63 L373.72 58.13 L372.30 57.65 L370.87 57.19 L369.44 56.73 L368.01 56.30 L366.57 55.87 L365.12 55.47 L363.68 55.07 L362.23 54.69 L360.77 54.33 L359.31 53.98 L357.85 53.64 L356.39 53.32 L354.92 53.01 L353.45 52.72 L351.97 52.44 L350.50 52.18 L349.02 51.93 L347.53 51.70 L346.05 51.48 L344.56 51.28 L343.08 51.09 L341.59 50.92 L340.09 50.76 L338.60 50.62 L337.11 50.49 L335.61 50.38 L334.11 50.28 L332.62 50.19 L331.12 50.12 L329.62 50.07 L328.12 50.03 L326.62 50.01 L325.12 50.00 L323.62 50.01 L322.12 50.03 L320.62 50.06 L319.12 50.12 L317.62 50.18 L316.12 50.26 L314.63 50.36 L313.13 50.47 L311.64 50.60 L310.14 50.74 L308.65 50.89 L307.16 51.06 L305.67 51.25 L304.19 51.45 L302.70 51.67 L301.22 51.90 L299.74 52.14 L298.26 52.40 L296.79 52.68 L295.32 52.97 L293.85 53.27 L292.38 53.59 L290.92 53.92 L289.46 54.27 L288.01 54.63 L286.55 55.01 L285.11 55.40 L283.66 55.81 L282.22 56.23 L280.79 56.66 L279.35 57.11 L277.93 57.58 L276.51 58.05 L275.09 58.55 L273.68 59.05 L272.27 59.57 L270.87 60.11 L269.47 60.66 L268.08 61.22 L266.70 61.79 L265.32 62.38 L263.95 62.99 L262.58 63.61 L261.22 64.24 L259.86 64.88 L258.51 65.54 L257.17 66.21 L255.84 66.90 L254.51 67.59 L253.19 68.31 L251.88 69.03 L250.57 69.77 L249.27 70.52 L247.98 71.28 L246.70 72.06 L245.42 72.85 L244.16 73.65 L242.90 74.47 L241.65 75.29 L240.40 76.13 L239.17 76.98 L237.94 77.85 L236.72 78.73 L235.52 79.61 L234.32 80.52 L233.13 81.43 L231.95 82.35 L230.77 83.29 L229.61 84.24 L228.46 85.20 L227.32 86.17 L226.18 87.15 L225.06 88.14 L223.95 89.15 L222.84 90.17 L221.75 91.19 L220.67 92.23 L219.59 93.28 L218.53 94.34 L217.48 95.41 L216.44 96.49 L215.41 97.58 L214.39 98.68 L213.38 99.79 L212.39 100.91 L211.40 102.04 L210.43 103.18 L209.47 104.34 L208.51 105.50 L207.58 106.66 L206.65 107.84 L205.73 109.03 L204.83 110.23 L203.94 111.44 L203.06 112.65 L202.19 113.87 L201.33 115.11 L200.49 116.35 L199.66 117.60 L198.84 118.85 L198.04 120.12 L197.25 121.39 L196.47 122.67 L195.70 123.96 L194.95 125.26 L194.21 126.57 L193.48 127.88 L192.76 129.20 L192.06 130.52 L191.37 131.85 L190.70 133.19 L190.04 134.54 L189.39 135.89 L188.75 137.25 L188.13 138.62 L187.53 139.99 L186.93 141.37 L186.35 142.75 L185.79 144.14 L185.24 145.54 L184.70 146.94 L184.18 148.34 L183.67 149.75 L183.17 151.17 L182.69 152.59 L182.22 154.01 L181.77 155.44 L181.33 156.88 L180.91 158.32 L180.50 159.76 L180.10 161.21 L179.72 162.66 L179.36 164.11 L179.00 165.57 L178.67 167.03 L178.35 168.50 L178.04 169.97 L177.74 171.44 L177.47 172.91 L177.20 174.39 L176.95 175.87 L176.72 177.35 L176.50 178.83 L176.30 180.32 L176.11 181.81 L175.93 183.30 L175.77 184.79 L175.63 186.28 L175.50 187.77 L175.38 189.27 L175.28 190.77 L175.20 192.26 L175.13 193.76 L175.07 195.26 L175.03 196.76 L175.01 198.26 L175.00 199.76 L175.01 201.26 L175.03 202.76 L175.06 204.26 L175.11 205.76 L175.18 207.26 L175.26 208.76 L175.35 210.25 L175.46 211.75 L175.59 213.24 L175.73 214.74 L175.88 216.23 L176.05 217.72 L176.23 219.21 L176.43 220.69 L176.65 222.18 L176.88 223.66 L177.12 225.14 L177.38 226.62 L177.65 228.09 L177.94 229.57 L178.25 231.04 L178.56 232.50 L178.90 233.96 L179.24 235.42 L179.60 236.88 L179.98 238.33 L180.37 239.78 L180.78 241.22 L181.20 242.66 L181.63 244.10 L182.08 245.53 L182.54 246.96 L183.02 248.38 L183.51 249.80 L184.01 251.21 L184.53 252.62 L185.06 254.02 L185.61 255.42 L186.17 256.81 L186.75 258.19 L187.34 259.57 L187.94 260.95 L188.56 262.31 L189.19 263.67 L189.83 265.03 L190.49 266.38 L191.16 267.72 L191.84 269.05 L192.54 270.38 L193.25 271.70 L193.97 273.02 L194.71 274.32 L195.46 275.62 L196.22 276.92 L197.00 278.20 L197.78 279.48 L198.59 280.74 L199.40 282.00 L200.23 283.26 L201.06 284.50 L201.92 285.73 L202.78 286.96 L203.66 288.18 L204.54 289.39 L205.44 290.59 L206.35 291.78 L207.28 292.96 L208.21 294.13 L209.16 295.30 L210.12 296.45 L211.09 297.59 L212.07 298.73 L213.06 299.85 L214.07 300.97 L215.08 302.07 L216.11 303.16 L217.15 304.25 L218.20 305.32 L219.25 306.38 L220.32 307.44 L221.40 308.48 L222.49 309.51 L223.59 310.53 L224.70 311.54 L225.82 312.53 L226.95 313.52 L228.09 314.50 L229.24 315.46 L230.40 316.41 L231.57 317.35 L232.75 318.28 L233.94 319.20 L235.13 320.10 L236.34 320.99 L237.55 321.87 L238.78 322.74 L240.01 323.60 L241.25 324.44 L242.50 325.27 L243.75 326.09 L245.02 326.90 L246.29 327.69 L247.57 328.47 L248.86 329.24 L250.16 329.99 L251.46 330.74 L252.77 331.47 L254.09 332.18 L255.42 332.88 L256.75 333.57 L258.09 334.25 L259.43 334.91 L260.79 335.56 L262.14 336.20 L263.51 336.82 L264.88 337.42 L266.26 338.02 L267.64 338.60 L269.03 339.17 L270.42 339.72 L271.82 340.26 L273.23 340.78 L274.64 341.29 L276.05 341.79 L277.47 342.27 L278.90 342.74 L280.33 343.19 L281.76 343.63 L283.20 344.06 L284.65 344.47 L286.09 344.87 L287.54 345.25 L289.00 345.62 L290.45 345.97 L291.92 346.31 L293.38 346.63 L294.85 346.94 L296.32 347.23 L297.79 347.51 L299.27 347.78 L300.75 348.03 L302.23 348.26 L303.71 348.48 L305.20 348.69 L306.69 348.88 L308.18 349.05 L309.67 349.21 L311.16 349.36 L312.66 349.49 L314.15 349.61 L315.65 349.71 L317.15 349.79 L318.64 349.87 L320.14 349.92 L321.64 349.96 L323.14 349.99 L324.64 350.00 L326.14 350.00 L327.64 349.98 L329.14 349.94 L330.64 349.89 L332.14 349.83 L333.64 349.75 L335.13 349.66 L336.63 349.55 L338.12 349.42 L339.62 349.29 L341.11 349.13 L342.60 348.96 L344.09 348.78 L345.58 348.58 L347.06 348.37 L348.54 348.14 L350.02 347.90 L351.50 347.64 L352.98 347.37 L354.45 347.08 L355.92 346.78 L357.38 346.46 L358.85 346.13 L360.31 345.79 L361.76 345.43 L363.22 345.05 L364.66 344.66 L366.11 344.26 L367.55 343.84 L368.99 343.41 L370.42 342.96 L371.84 342.50 L373.27 342.02 L374.69 341.53 L376.10 341.03 L377.51 340.51 L378.91 339.98 L380.31 339.43 L381.70 338.87 L383.08 338.30 L384.46 337.71 L385.84 337.11 L387.20 336.49 L388.57 335.86 L389.92 335.22 L391.27 334.57 L392.61 333.90 L393.95 333.21 L395.28 332.52 L396.60 331.81 L397.91 331.09 L399.22 330.35 L400.52 329.60 L401.81 328.84 L403.10 328.07 L404.37 327.28 L405.64 326.48 L406.90 325.67 L408.16 324.84 L409.40 324.00 L410.64 323.15 L411.86 322.29 L413.08 321.41 L414.29 320.53 L415.49 319.63 L416.68 318.72 L417.87 317.80 L419.04 316.86 L420.20 315.91 L421.36 314.96 L422.50 313.99 L423.64 313.01 L424.76 312.01 L425.88 311.01 L426.98 310.00 L428.08 308.97 L429.16 307.94 L430.24 306.89 L431.30 305.83 L432.35 304.76 L433.40 303.68 L434.43 302.59 L435.45 301.50 L436.46 300.39 L437.46 299.27 L438.44 298.14 L439.42 297.00 L440.38 295.85 L441.33 294.69 L442.28 293.52 L443.21 292.34 L444.12 291.16 L445.03 289.96 L445.92 288.76 L446.80 287.54 L447.67 286.32 L448.53 285.09 L449.37 283.85 L450.21 282.60 L451.03 281.35 L451.83 280.08 L452.63 278.81 L453.41 277.53 L454.18 276.24 L454.93 274.95 L455.68 273.64 L456.41 272.33 L457.12 271.02 L457.83 269.69 L458.52 268.36 L459.20 267.02 L459.86 265.67 L460.51 264.32 L461.14 262.96 L461.77 261.60 L462.38 260.23 L462.97 258.85 L463.55 257.47 L464.12 256.08 L464.68 254.69 L465.22 253.29 L465.74 251.88 L466.25 250.47 L466.75 249.06 L467.23 247.64 L467.70 246.21 L468.16 244.78 L468.60 243.35 L469.03 241.91 L469.44 240.47 L469.83 239.02 L470.22 237.57 L470.59 236.12 L470.94 234.66 L471.28 233.20 L471.60 231.74 L471.91 230.27 L472.21 228.80 L472.49 227.32 L472.76 225.85 L473.01 224.37 L473.24 222.89 L473.46 221.40 L473.67 219.92 L473.86 218.43 L474.04 216.94 L474.20 215.45 L474.35 213.96 L474.48 212.46 L474.60 210.97 L474.70 209.47 L474.79 207.97 L474.86 206.48 L474.92 204.98 L474.96 203.48 L474.99 201.98 L475.00 200.48 " style="fill:none;stroke:#0080cc;stroke-width:1;" /><path d="M325.00 200.00 L325.00 200.00 L325.50 199.75 L326.00 199.50 L326.50 199.25 L327.00 199.00 L327.50 198.75 L328.00 198.50 L328.50 198.25 L329.00 198.00 L329.50 197.75 L330.00 197.50 L330.50 197.25 L331.00 197.00 L331.50 196.75 L332.00 196.50 L332.50 196.25 L333.00 196.00 L333.50 195.75 L334.00 195.50 L334.50 195.25 L335.00 195.00 L335.50 194.75 L336.00 194.50 L336.50 194.25 L337.00 194.00 L337.50 193.75 L338.00 193.50 L338.50 193.25 L339.00 193.00 L339.50 192.75 L340.00 192.50 L340.50 192.25 L341.00 192.00 L341.50 191.75 L342.00 191.50 L342.50 191.25 L343.00 191.00 L343.50 190.75 L344.00 190.50 L344.50 190.25 L345.00 190.00 L345.50 189.75 L346.00 189.50 L346.50 189.25 L347.00 189.00 L347.50 188.75 L348.00 188.50 L348.50 188.25 L349.00 188.00 L349.50 187.75 L350.00 187.50 L350.50 187.25 L351.00 187.00 L351.50 186.75 L352.00 186.50 L352.50 186.25 L353.00 186.00 L353.50 185.75 L354.00 185.50 L354.50 185.25 L355.00 185.00 L355.50 184.75 L356.00 184.50 L356.50 184.25 L357.00 184.00 L357.50 183.75 L358.00 183.50 L358.50 183.25 L359.00 183.00 L359.50 182.75 L360.00 182.50 L360.50 182.25 L361.00 182.00 L361.50 181.75 L362.00 181.50 L362.50 181.25 L363.00 181.00 L363.50 180.75 L364.00 180.50 L364.50 180.25 L365.00 180.00 L365.50 179.75 L366.00 179.50 L366.50 179.25 L367.00 179.00 L367.50 178.75 L368.00 178.50 L368.50 178.25 L369.00 178.00 L369.50 177.75 L370.00 177.50 L370.50 177.25 L371.00 177.00 L371.50 176.75 L372.00 176.50 L372.50 176.25 L373.00 176.00 L373.50 175.75 L374.00 175.50 L374.50 175.25 L375.00 175.00 L375.50 174.75 L376.00 174.50 L376.50 174.25 L377.00 174.00 L377.50 173.75 L378.00 173.50 L378.50 173.25 L379.00 173.00 L379.50 172.75 L380.00 172.50 L380.50 172.25 L381.00 172.00 L381.50 171.75 L382.00 171.50 L382.50 171.25 L383.00 171.00 L383.50 170.75 L384.00 170.50 L384.50 170.25 L385.00 170.00 L385.50 169.75 L386.00 169.50 L386.50 169.25 L387.00 169.00 L387.50 168.75 L388.00 168.50 L388.50 168.25 L389.00 168.00 L389.50 167.75 L390.00 167.50 L390.50 167.25 L391.00 167.00 L391.50 166.75 L392.00 166.50 L392.50 166.25 L393.00 166.00 L393.50 165.75 L394.00 165.50 L394.50 165.25 L395.00 165.00 L395.50 164.75 L396.00 164.50 L396.50 164.25 L397.00 164.00 L397.50 163.75 L398.00 163.50 L398.50 163.25 L399.00 163.00 L399.50 162.75 L400.00 162.50 L400.50 162.25 L401.00 162.00 L401.50 161.75 L402.00 161.50 L402.50 161.25 L403.00 161.00 L403.50 160.75 L404.00 160.50 L404.50 160.25 L405.00 160.00 L405.50 159.75 L406.00 159.50 L406.50 159.25 L407.00 159.00 L407.50 158.75 L408.00 158.50 L408.50 158.25 L409.00 158.00 L409.50 157.75 L410.00 157.50 L410.50 157.25 L411.00 157.00 L411.50 156.75 L412.00 156.50 L412.50 156.25 L413.00 156.00 L413.50 155.75 L414.00 155.50 L414.50 155.25 L415.00 155.00 L415.50 154.75 L416.00 154.50 L416.50 154.25 L417.00 154.00 L417.50 153.75 L418.00 153.50 L418.50 153.25 L419.00 153.00 L419.50 152.75 L420.00 152.50 L420.50 152.25 L421.00 152.00 L421.50 151.75 L422.00 151.50 L422.50 151.25 L423.00 151.00 L423.50 150.75 L424.00 150.50 L424.50 150.25 L425.00 150.00 L425.50 149.75 L426.00 149.50 L426.50 149.25 L427.00 149.00 L427.50 148.75 L428.00 148.50 L428.50 148.25 L429.00 148.00 L429.50 147.75 L430.00 147.50 L430.50 147.25 L431.00 147.00 L431.50 146.75 L432.00 146.50 L432.50 146.25 L433.00 146.00 L433.50 145.75 L434.00 145.50 L434.50 145.25 L435.00 145.00 L435.50 144.75 L436.00 144.50 L436.50 144.25 L437.00 144.00 L437.50 143.75 L438.00 143.50 L438.50 143.25 L439.00 143.00 L439.50 142.75 L440.00 142.50 L440.50 142.25 L441.00 142.00 L441.50 141.75 L442.00 141.50 L442.50 141.25 L443.00 141.00 L443.50 140.75 L444.00 140.50 L444.50 140.25 L445.00 140.00 L445.50 139.75 L446.00 139.50 L446.50 139.25 L447.00 139.00 L447.50 138.75 L448.00 138.50 L448.50 138.25 L449.00 138.00 L449.50 137.75 L450.00 137.50 L450.50 137.25 L451.00 137.00 L451.50 136.75 L452.00 136.50 L452.50 136.25 L453.00 136.00 L453.50 135.75 L454.00 135.50 L454.50 135.25 L455.00 135.00 L455.50 134.75 L456.00 134.50 L456.50 134.25 L457.00 134.00 L457.50 133.75 L458.00 133.50 L458.50 133.25 L459.00 133.00 " style="fill:none;stroke:#ff0000;stroke-width:1;" /></g></svg>