<?xml version="1.0" standalone="no"?><!DOCTYPE svg PUBLIC "-//W3C//DTD SVG 1.1//EN" "http://www.w3.org/Graphics/SVG/1.1/DTD/svg11.dtd"><svg xmlns="http://www.w3.org/2000/svg" viewBox="0 0 650 400" version="1.1"><clipPath id="box"><rect x="0" y="0" width="650" height="400" style="fill:none;stroke:none;" /></clipPath><g clip-path="url(#box)"><rect x="0.00" y="0.00" width="650.00" height="400.00" style="fill:#FFFFFF;stroke:none;" /><path d="M0.00 359.00 L650.00 359.00 M0.00 279.00 L650.00 279.00 M0.00 199.00 L650.00 199.00 M0.00 119.00 L650.00 119.00 M0.00 39.00 L650.00 39.00 M79.00 0.00 L79.00 400.00 M159.00 0.00 L159.00 400.00 M239.00 0.00 L239.00 400.00 M319.00 0.00 L319.00 400.00 M399.00 0.00 L399.00 400.00 M479.00 0.00 L479.00 400.00 M559.00 0.00 L559.00 400.00 M639.00 0.00 L639.00 400.00 " style="fill:none;stroke:#D0D0D0;stroke-width:1;" /><path d="M319.75 0.00 L319.75 400.00 " style="fill:none;stroke:#000000;stroke-width:1;" /><path d="M313.25 439.29 L326.25 439.29 M313.25 359.29 L326.25 359.29 M313.25 279.29 L326.25 279.29 M313.25 199.29 L326.25 199.29 M313.25 119.29 L326.25 119.29 M313.25 39.29 L326.25 39.29 " style="fill:none;stroke:#000000;stroke-width:1;" /><path d="M0.00 279.29 L650.00 279.29 " style="fill:none;stroke:#000000;stroke-width:1;" /><path d="M-0.25 272.79 L-0.25 285.79 M79.75 272.79 L79.75 285.79 M159.75 272.79 L159.75 285.79 M239.75 272.79 L239.75 285.79 M319.75 272.79 L319.75 285.79 M399.75 272.79 L399.75 285.79 M479.75 272.79 L479.75 285.79 M559.75 272.79 L559.75 285.79 M639.75 272.79 L639.75 285.79 " style="fill:none;stroke:#000000;stroke-width:1;" /><text x="327.875" y="361.78749999999997" text-anchor="start" style="font:10px Droid Sans,Trebuchet MS,Arial,Helvetica,sans-serif;stroke:none;fill:#000000">-2</text><text x="327.875" y="281.78749999999997" text-anchor="start" style="font:10px Droid Sans,Trebuchet MS,Arial,Helvetica,sans-serif;stroke:none;fill:#000000">0</text><text x="327.875" y="201.7874999999999" text-anchor="start" style="font:10px Droid Sans,Trebuchet MS,Arial,Helvetica,sans-serif;stroke:none;fill:#000000">2</text><text x="327.875" y="121.78749999999985" text-anchor="start" style="font:10px Droid Sans,Trebuchet MS,Arial,Helvetica,sans-serif;stroke:none;fill:#000000">4</text><text x="327.875" y="41.78749999999982" text-anchor="start" style="font:10px Droid Sans,Trebuchet MS,Arial,Helvetica,sans-serif;stroke:none;fill:#000000">6</text><text x="79.7499999999999" y="295.41249999999997" text-anchor="middle" style="font:10px Droid Sans,Trebuchet MS,Arial,Helvetica,sans-serif;stroke:none;fill:#000000">-6</text><text x="159.74999999999994" y="295.41249999999997" text-anchor="middle" style="font:10px Droid Sans,Trebuchet MS,Arial,Helvetica,sans-serif;stroke:none;fill:#000000">-4</text><text x="239.74999999999997" y="295.41249999999997" text-anchor="middle" style="font:10px Droid Sans,Trebuchet MS,Arial,Helvetica,sans-serif;stroke:none;fill:#000000">-2</text><text x="319.75" y="295.41249999999997" text-anchor="middle" style="font:10px Droid Sans,Trebuchet MS,Arial,Helvetica,sans-serif;stroke:none;fill:#000000">0</text><text x="399.75000000000006" y="295.41249999999997" text-anchor="middle" style="font:10px Droid Sans,Trebuchet MS,Arial,Helvetica,sans-serif;stroke:none;fill:#000000">2</text><text x="479.75000000000006" y="295.41249999999997" text-anchor="middle" style="font:10px Droid Sans,Trebuchet MS,Arial,Helvetica,sans-serif;stroke:none;fill:#000000">4</text><text x="559.7500000000001" y="295.41249999999997" text-anchor="middle" style="font:10px Droid Sans,Trebuchet MS,Arial,Helvetica,sans-serif;stroke:none;fill:#000000">6</text><text x="639.7500000000001" y="295.41249999999997" text-anchor="middle" style="font:10px Droid Sans,Trebuchet MS,Arial,Helvetica,sans-serif;stroke:none;fill:#000000">8</text><path d="M214.05 -0.00 L214.05 0.00 L214.24 1.00 L214.43 2.00 L214.62 3.00 L214.81 4.00 L215.00 4.99 L215.19 5.99 L215.39 6.99 L215.58 7.99 L215.77 8.99 L215.96 9.98 L216.15 10.98 L216.35 11.98 L216.54 12.98 L216.73 13.98 L216.93 14.98 L217.12 15.97 L217.32 16.97 L217.51 17.97 L217.71 18.97 L217.90 19.97 L218.10 20.96 L218.30 21.96 L218.49 22.96 L218.69 23.96 L218.89 24.96 L219.09 25.95 L219.28 26.95 L219.48 27.95 L219.68 28.95 L219.88 29.95 L220.08 30.94 L220.28 31.94 L220.48 32.94 L220.68 33.94 L220.89 34.94 L221.09 35.93 L221.29 36.93 L221.49 37.93 L221.70 38.93 L221.90 39.93 L222.10 40.92 L222.31 41.92 L222.51 42.92 L222.72 43.92 L222.93 44.92 L223.13 45.91 L223.34 46.91 L223.55 47.91 L223.75 48.91 L223.96 49.90 L224.17 50.90 L224.38 51.90 L224.59 52.90 L224.80 53.90 L225.01 54.89 L225.22 55.89 L225.43 56.89 L225.64 57.89 L225.86 58.88 L226.07 59.88 L226.28 60.88 L226.50 61.88 L226.71 62.88 L226.92 63.87 L227.14 64.87 L227.36 65.87 L227.57 66.87 L227.79 67.86 L228.01 68.86 L228.22 69.86 L228.44 70.86 L228.66 71.85 L228.88 72.85 L229.10 73.85 L229.32 74.85 L229.54 75.84 L229.76 76.84 L229.98 77.84 L230.21 78.84 L230.43 79.83 L230.65 80.83 L230.88 81.83 L231.10 82.83 L231.33 83.82 L231.55 84.82 L231.78 85.82 L232.01 86.82 L232.23 87.81 L232.46 88.81 L232.69 89.81 L232.92 90.81 L233.15 91.80 L233.38 92.80 L233.61 93.80 L233.85 94.80 L234.08 95.79 L234.31 96.79 L234.54 97.79 L234.78 98.79 L235.01 99.78 L235.25 100.78 L235.49 101.78 L235.72 102.77 L235.96 103.77 L236.20 104.77 L236.44 105.77 L236.68 106.76 L236.92 107.76 L237.16 108.76 L237.40 109.75 L237.64 110.75 L237.89 111.75 L238.13 112.74 L238.38 113.74 L238.62 114.74 L238.87 115.74 L239.11 116.73 L239.36 117.73 L239.61 118.73 L239.86 119.72 L240.11 120.72 L240.36 121.72 L240.61 122.71 L240.86 123.71 L241.12 124.71 L241.37 125.70 L241.63 126.70 L241.88 127.70 L242.14 128.69 L242.39 129.69 L242.65 130.69 L242.91 131.68 L243.17 132.68 L243.43 133.68 L243.69 134.67 L243.96 135.67 L244.22 136.67 L244.48 137.66 L244.75 138.66 L245.02 139.66 L245.28 140.65 L245.55 141.65 L245.82 142.65 L246.09 143.64 L246.36 144.64 L246.63 145.64 L246.91 146.63 L247.18 147.63 L247.46 148.62 L247.73 149.62 L248.01 150.62 L248.29 151.61 L248.57 152.61 L248.85 153.60 L249.13 154.60 L249.41 155.60 L249.69 156.59 L249.98 157.59 L250.27 158.58 L250.55 159.58 L250.84 160.58 L251.13 161.57 L251.42 162.57 L251.71 163.56 L252.01 164.56 L252.30 165.56 L252.60 166.55 L252.89 167.55 L253.19 168.54 L253.49 169.54 L253.79 170.53 L254.10 171.53 L254.40 172.52 L254.71 173.52 L255.01 174.51 L255.32 175.51 L255.63 176.51 L255.94 177.50 L256.25 178.50 L256.57 179.49 L256.88 180.49 L257.20 181.48 L257.52 182.48 L257.84 183.47 L258.16 184.47 L258.49 185.46 L258.81 186.45 L259.14 187.45 L259.47 188.44 L259.80 189.44 L260.13 190.43 L260.47 191.43 L260.80 192.42 L261.14 193.42 L261.48 194.41 L261.82 195.40 L262.17 196.40 L262.52 197.39 L262.86 198.39 L263.21 199.38 L263.57 200.37 L263.92 201.37 L264.28 202.36 L264.64 203.35 L265.00 204.35 L265.36 205.34 L265.73 206.34 L266.10 207.33 L266.47 208.32 L266.85 209.31 L267.22 210.31 L267.60 211.30 L267.98 212.29 L268.37 213.29 L268.76 214.28 L269.15 215.27 L269.54 216.26 L269.94 217.25 L270.34 218.25 L270.74 219.24 L271.15 220.23 L271.56 221.22 L271.97 222.21 L272.39 223.21 L272.81 224.20 L273.23 225.19 L273.66 226.18 L274.09 227.17 L274.53 228.16 L274.97 229.15 L275.41 230.14 L275.86 231.13 L276.31 232.12 L276.77 233.11 L277.23 234.10 L277.70 235.09 L278.18 236.08 L278.65 237.07 L279.14 238.05 L279.63 239.04 L280.12 240.03 L280.62 241.02 L281.13 242.00 L281.65 242.99 L282.17 243.98 L282.70 244.96 L283.23 245.95 L283.78 246.93 L284.33 247.92 L284.89 248.90 L285.46 249.89 L286.04 250.87 L286.62 251.85 L287.22 252.84 L287.83 253.82 L288.45 254.80 L289.09 255.78 L289.73 256.76 L290.39 257.74 L291.06 258.71 L291.75 259.69 L292.46 260.67 L293.18 261.64 L293.92 262.61 L294.69 263.58 L295.47 264.55 L296.28 265.52 L297.12 266.49 L297.99 267.45 L298.89 268.41 L299.83 269.37 L300.81 270.32 L301.84 271.27 L302.93 272.21 L304.08 273.15 L305.31 274.07 L306.64 274.99 L308.09 275.89 L309.70 276.76 L311.55 277.60 L313.55 278.33 L315.55 278.85 L317.55 279.17 L319.55 279.29 L321.55 279.21 L323.55 278.93 L325.55 278.45 L327.55 277.77 L329.55 276.89 L331.55 275.81 L333.40 274.63 L334.97 273.50 L336.36 272.39 L337.61 271.31 L338.77 270.24 L339.86 269.18 L340.88 268.13 L341.85 267.08 L342.77 266.03 L343.66 264.99 L344.51 263.96 L345.34 262.92 L346.13 261.89 L346.90 260.86 L347.65 259.83 L348.37 258.80 L349.08 257.78 L349.77 256.76 L350.45 255.73 L351.10 254.71 L351.75 253.69 L352.38 252.67 L353.00 251.65 L353.61 250.63 L354.20 249.61 L354.79 248.60 L355.36 247.58 L355.93 246.56 L356.49 245.55 L357.04 244.53 L357.58 243.52 L358.11 242.50 L358.63 241.49 L359.15 240.48 L359.66 239.46 L360.17 238.45 L360.66 237.44 L361.16 236.43 L361.64 235.41 L362.12 234.40 L362.60 233.39 L363.07 232.38 L363.53 231.37 L363.99 230.36 L364.44 229.35 L364.89 228.34 L365.34 227.33 L365.78 226.32 L366.22 225.31 L366.65 224.30 L367.08 223.29 L367.50 222.28 L367.92 221.27 L368.34 220.26 L368.75 219.25 L369.16 218.25 L369.57 217.24 L369.97 216.23 L370.37 215.22 L370.77 214.21 L371.16 213.21 L371.55 212.20 L371.94 211.19 L372.33 210.18 L372.71 209.18 L373.09 208.17 L373.46 207.16 L373.84 206.15 L374.21 205.15 L374.58 204.14 L374.94 203.13 L375.31 202.13 L375.67 201.12 L376.03 200.11 L376.38 199.11 L376.74 198.10 L377.09 197.10 L377.44 196.09 L377.79 195.08 L378.13 194.08 L378.48 193.07 L378.82 192.07 L379.16 191.06 L379.49 190.05 L379.83 189.05 L380.16 188.04 L380.50 187.04 L380.83 186.03 L381.15 185.03 L381.48 184.02 L381.81 183.02 L382.13 182.01 L382.45 181.01 L382.77 180.00 L383.09 179.00 L383.40 177.99 L383.72 176.99 L384.03 175.98 L384.34 174.98 L384.66 173.97 L384.96 172.97 L385.27 171.96 L385.58 170.96 L385.88 169.95 L386.19 168.95 L386.49 167.94 L386.79 166.94 L387.09 165.93 L387.38 164.93 L387.68 163.92 L387.98 162.92 L388.27 161.92 L388.56 160.91 L388.85 159.91 L389.14 158.90 L389.43 157.90 L389.72 156.89 L390.01 155.89 L390.29 154.89 L390.58 153.88 L390.86 152.88 L391.14 151.87 L391.42 150.87 L391.70 149.87 L391.98 148.86 L392.26 147.86 L392.53 146.86 L392.81 145.85 L393.08 144.85 L393.36 143.84 L393.63 142.84 L393.90 141.84 L394.17 140.83 L394.44 139.83 L394.71 138.83 L394.97 137.82 L395.24 136.82 L395.51 135.82 L395.77 134.81 L396.03 133.81 L396.30 132.80 L396.56 131.80 L396.82 130.80 L397.08 129.79 L397.34 128.79 L397.60 127.79 L397.85 126.78 L398.11 125.78 L398.37 124.78 L398.62 123.77 L398.87 122.77 L399.13 121.77 L399.38 120.76 L399.63 119.76 L399.88 118.76 L400.13 117.76 L400.38 116.75 L400.63 115.75 L400.88 114.75 L401.12 113.74 L401.37 112.74 L401.62 111.74 L401.86 110.73 L402.10 109.73 L402.35 108.73 L402.59 107.73 L402.83 106.72 L403.07 105.72 L403.31 104.72 L403.55 103.71 L403.79 102.71 L404.03 101.71 L404.27 100.71 L404.50 99.70 L404.74 98.70 L404.98 97.70 L405.21 96.69 L405.45 95.69 L405.68 94.69 L405.91 93.69 L406.15 92.68 L406.38 91.68 L406.61 90.68 L406.84 89.68 L407.07 88.67 L407.30 87.67 L407.53 86.67 L407.76 85.66 L407.98 84.66 L408.21 83.66 L408.44 82.66 L408.66 81.65 L408.89 80.65 L409.11 79.65 L409.34 78.65 L409.56 77.64 L409.78 76.64 L410.00 75.64 L410.23 74.64 L410.45 73.63 L410.67 72.63 L410.89 71.63 L411.11 70.63 L411.33 69.62 L411.55 68.62 L411.76 67.62 L411.98 66.62 L412.20 65.62 L412.42 64.61 L412.63 63.61 L412.85 62.61 L413.06 61.61 L413.28 60.60 L413.49 59.60 L413.71 58.60 L413.92 57.60 L414.13 56.59 L414.34 55.59 L414.55 54.59 L414.77 53.59 L414.98 52.59 L415.19 51.58 L415.40 50.58 L415.61 49.58 L415.81 48.58 L416.02 47.57 L416.23 46.57 L416.44 45.57 L416.65 44.57 L416.85 43.57 L417.06 42.56 L417.26 41.56 L417.47 40.56 L417.67 39.56 L417.88 38.56 L418.08 37.55 L418.29 36.55 L418.49 35.55 L418.69 34.55 L418.89 33.54 L419.10 32.54 L419.30 31.54 L419.50 30.54 L419.70 29.54 L419.90 28.53 L420.10 27.53 L420.30 26.53 L420.50 25.53 L420.70 24.53 L420.90 23.52 L421.09 22.52 L421.29 21.52 L421.49 20.52 L421.69 19.52 L421.88 18.52 L422.08 17.51 L422.27 16.51 L422.47 15.51 L422.66 14.51 L422.86 13.51 L423.05 12.50 L423.25 11.50 L423.44 10.50 L423.63 9.50 L423.83 8.50 L424.02 7.49 L424.21 6.49 L424.40 5.49 L424.59 4.49 L424.78 3.49 L424.97 2.49 L425.16 1.48 L425.35 0.48 L425.54 -0.52 " style="fill:none;stroke:#000000;stroke-width:1;" /><path d="M259.39 400.00 L259.39 400.00 L259.89 399.00 L260.39 398.00 L260.89 397.00 L261.39 396.00 L261.89 395.00 L262.39 394.00 L262.89 393.00 L263.39 392.00 L263.89 391.00 L264.39 390.00 L264.89 389.00 L265.39 388.00 L265.89 387.00 L266.39 386.00 L266.89 385.00 L267.39 384.00 L267.89 383.00 L268.39 382.00 L268.89 381.00 L269.39 380.00 L269.89 379.00 L270.39 378.00 L270.89 377.00 L271.39 376.00 L271.89 375.00 L272.39 374.00 L272.89 373.00 L273.39 372.00 L273.89 371.00 L274.39 370.00 L274.89 369.00 L275.39 368.00 L275.89 367.00 L276.39 366.00 L276.89 365.00 L277.39 364.00 L277.89 363.00 L278.39 362.00 L278.89 361.00 L279.39 360.00 L279.89 359.00 L280.39 358.00 L280.89 357.00 L281.39 356.00 L281.89 355.00 L282.39 354.00 L282.89 353.00 L283.39 352.00 L283.89 351.00 L284.39 350.00 L284.89 349.00 L285.39 348.00 L285.89 347.00 L286.39 346.00 L286.89 345.00 L287.39 344.00 L287.89 343.00 L288.39 342.00 L288.89 341.00 L289.39 340.00 L289.89 339.00 L290.39 338.00 L290.89 337.00 L291.39 336.00 L291.89 335.00 L292.39 334.00 L292.89 333.00 L293.39 332.00 L293.89 331.00 L294.39 330.00 L294.89 329.00 L295.39 328.00 L295.89 327.00 L296.39 326.00 L296.89 325.00 L297.39 324.00 L297.89 323.00 L298.39 322.00 L298.89 321.00 L299.39 320.00 L299.89 319.00 L300.39 318.00 L300.89 317.00 L301.39 316.00 L301.89 315.00 L302.39 314.00 L302.89 313.00 L303.39 312.00 L303.89 311.00 L304.39 310.00 L304.89 309.00 L305.39 308.00 L305.89 307.00 L306.39 306.00 L306.89 305.00 L307.39 304.00 L307.89 303.00 L308.39 302.00 L308.89 301.00 L309.39 300.00 L309.89 299.00 L310.39 298.00 L310.89 297.00 L311.39 296.00 L311.89 295.00 L312.39 294.00 L312.89 293.00 L313.39 292.00 L313.89 291.00 L314.39 290.00 L314.89 289.00 L315.39 288.00 L315.89 287.00 L316.39 286.00 L316.89 285.00 L317.39 284.00 L317.89 283.00 L318.39 282.00 L318.89 281.00 L319.39 280.00 L319.89 279.00 L320.39 278.00 L320.89 277.00 L321.39 276.00 L321.89 275.00 L322.39 274.00 L322.89 273.00 L323.39 272.00 L323.89 271.00 L324.39 270.00 L324.89 269.00 L325.39 268.00 L325.89 267.00 L326.39 266.00 L326.89 265.00 L327.39 264.00 L327.89 263.00 L328.39 262.00 L328.89 261.00 L329.39 260.00 L329.89 259.00 L330.39 258.00 L330.89 257.00 L331.39 256.00 L331.89 255.00 L332.39 254.00 L332.89 253.00 L333.39 252.00 L333.89 251.00 L334.39 250.00 L334.89 249.00 L335.39 248.00 L335.89 247.00 L336.39 246.00 L336.89 245.00 L337.39 244.00 L337.89 243.00 L338.39 242.00 L338.89 241.00 L339.39 240.00 L339.89 239.00 L340.39 238.00 L340.89 237.00 L341.39 236.00 L341.89 235.00 L342.39 234.00 L342.89 233.00 L343.39 232.00 L343.89 231.00 L344.39 230.00 L344.89 229.00 L345.39 228.00 L345.89 227.00 L346.39 226.00 L346.89 225.00 L347.39 224.00 L347.89 223.00 L348.39 222.00 L348.89 221.00 L349.39 220.00 L349.89 219.00 L350.39 218.00 L350.89 217.00 L351.39 216.00 L351.89 215.00 L352.39 214.00 L352.89 213.00 L353.39 212.00 L353.89 211.00 L354.39 210.00 L354.89 209.00 L355.39 208.00 L355.89 207.00 L356.39 206.00 L356.89 205.00 L357.39 204.00 L357.89 203.00 L358.39 202.00 L358.89 201.00 L359.39 200.00 L359.89 199.00 L360.39 198.00 L360.89 197.00 L361.39 196.00 L361.89 195.00 L362.39 194.00 L362.89 193.00 L363.39 192.00 L363.89 191.00 L364.39 190.00 L364.89 189.00 L365.39 188.00 L365.89 187.00 L366.39 186.00 L366.89 185.00 L367.39 184.00 L367.89 183.00 L368.39 182.00 L368.89 181.00 L369.39 180.00 L369.89 179.00 L370.39 178.00 L370.89 177.00 L371.39 176.00 L371.89 175.00 L372.39 174.00 L372.89 173.00 L373.39 172.00 L373.89 171.00 L374.39 170.00 L374.89 169.00 L375.39 168.00 L375.89 167.00 L376.39 166.00 L376.89 165.00 L377.39 164.00 L377.89 163.00 L378.39 162.00 L378.89 161.00 L379.39 160.00 L379.89 159.00 L380.39 158.00 L380.89 157.00 L381.39 156.00 L381.89 155.00 L382.39 154.00 L382.89 153.00 L383.39 152.00 L383.89 151.00 L384.39 150.00 L384.89 149.00 L385.39 148.00 L385.89 147.00 L386.39 146.00 L386.89 145.00 L387.39 144.00 L387.89 143.00 L388.39 142.00 L388.89 141.00 L389.39 140.00 L389.89 139.00 L390.39 138.00 L390.89 137.00 L391.39 136.00 L391.89 135.00 L392.39 134.00 L392.89 133.00 L393.39 132.00 L393.89 131.00 L394.39 130.00 L394.89 129.00 L395.39 128.00 L395.89 127.00 L396.39 126.00 L396.89 125.00 L397.39 124.00 L397.89 123.00 L398.39 122.00 L398.89 121.00 L399.39 120.00 L399.89 119.00 L400.39 118.00 L400.89 117.00 L401.39 116.00 L401.89 115.00 L402.39 114.00 L402.89 113.00 L403.39 112.00 L403.89 111.00 L404.39 110.00 L404.89 109.00 L405.39 108.00 L405.89 107.00 L406.39 106.00 L406.89 105.00 L407.39 104.00 L407.89 103.00 L408.39 102.00 L408.89 101.00 L409.39 100.00 L409.89 99.00 L410.39 98.00 L410.89 97.00 L411.39 96.00 L411.89 95.00 L412.39 94.00 L412.89 93.00 L413.39 92.00 L413.89 91.00 L414.39 90.00 L414.89 89.00 L415.39 88.00 L415.89 87.00 L416.39 86.00 L416.89 85.00 L417.39 84.00 L417.89 83.00 L418.39 82.00 L418.89 81.00 L419.39 80.00 L419.89 79.00 L420.39 78.00 L420.89 77.00 L421.39 76.00 L421.89 75.00 L422.39 74.00 L422.89 73.00 L423.39 72.00 L423.89 71.00 L424.39 70.00 L424.89 69.00 L425.39 68.00 L425.89 67.00 L426.39 66.00 L426.89 65.00 L427.39 64.00 L427.89 63.00 L428.39 62.00 L428.89 61.00 L429.39 60.00 L429.89 59.00 L430.39 58.00 L430.89 57.00 L431.39 56.00 L431.89 55.00 L432.39 54.00 L432.89 53.00 L433.39 52.00 L433.89 51.00 L434.39 50.00 L434.89 49.00 L435.39 48.00 L435.89 47.00 L436.39 46.00 L436.89 45.00 L437.39 44.00 L437.89 43.00 L438.39 42.00 L438.89 41.00 L439.39 40.00 L439.89 39.00 L440.39 38.00 L440.89 37.00 L441.39 36.00 L441.89 35.00 L442.39 34.00 L442.89 33.00 L443.39 32.00 L443.89 31.00 L444.39 30.00 L444.89 29.00 L445.39 28.00 L445.89 27.00 L446.39 26.00 L446.89 25.00 L447.39 24.00 L447.89 23.00 L448.39 22.00 L448.89 21.00 L449.39 20.00 L449.89 19.00 L450.39 18.00 L450.89 17.00 L451.39 16.00 L451.89 15.00 L452.39 14.00 L452.89 13.00 L453.39 12.00 L453.89 11.00 L454.39 10.00 L454.89 9.00 L455.39 8.00 L455.89 7.00 L456.39 6.00 L456.89 5.00 L457.39 4.00 L457.89 3.00 L458.39 2.00 L458.89 1.00 L459.39 -0.00 " style="fill:none;stroke:#000000;stroke-width:1;" /><path d="M279.39 400.00 L279.39 400.00 L279.89 399.00 L280.39 398.00 L280.89 397.00 L281.39 396.00 L281.89 395.00 L282.39 394.00 L282.89 393.00 L283.39 392.00 L283.89 391.00 L284.39 390.00 L284.89 389.00 L285.39 388.00 L285.89 387.00 L286.39 386.00 L286.89 385.00 L287.39 384.00 L287.89 383.00 L288.39 382.00 L288.89 381.00 L289.39 380.00 L289.89 379.00 L290.39 378.00 L290.89 377.00 L291.39 376.00 L291.89 375.00 L292.39 374.00 L292.89 373.00 L293.39 372.00 L293.89 371.00 L294.39 370.00 L294.89 369.00 L295.39 368.00 L295.89 367.00 L296.39 366.00 L296.89 365.00 L297.39 364.00 L297.89 363.00 L298.39 362.00 L298.89 361.00 L299.39 360.00 L299.89 359.00 L300.39 358.00 L300.89 357.00 L301.39 356.00 L301.89 355.00 L302.39 354.00 L302.89 353.00 L303.39 352.00 L303.89 351.00 L304.39 350.00 L304.89 349.00 L305.39 348.00 L305.89 347.00 L306.39 346.00 L306.89 345.00 L307.39 344.00 L307.89 343.00 L308.39 342.00 L308.89 341.00 L309.39 340.00 L309.89 339.00 L310.39 338.00 L310.89 337.00 L311.39 336.00 L311.89 335.00 L312.39 334.00 L312.89 333.00 L313.39 332.00 L313.89 331.00 L314.39 330.00 L314.89 329.00 L315.39 328.00 L315.89 327.00 L316.39 326.00 L316.89 325.00 L317.39 324.00 L317.89 323.00 L318.39 322.00 L318.89 321.00 L319.39 320.00 L319.89 319.00 L320.39 318.00 L320.89 317.00 L321.39 316.00 L321.89 315.00 L322.39 314.00 L322.89 313.00 L323.39 312.00 L323.89 311.00 L324.39 310.00 L324.89 309.00 L325.39 308.00 L325.89 307.00 L326.39 306.00 L326.89 305.00 L327.39 304.00 L327.89 303.00 L328.39 302.00 L328.89 301.00 L329.39 300.00 L329.89 299.00 L330.39 298.00 L330.89 297.00 L331.39 296.00 L331.89 295.00 L332.39 294.00 L332.89 293.00 L333.39 292.00 L333.89 291.00 L334.39 290.00 L334.89 289.00 L335.39 288.00 L335.89 287.00 L336.39 286.00 L336.89 285.00 L337.39 284.00 L337.89 283.00 L338.39 282.00 L338.89 281.00 L339.39 280.00 L339.89 279.00 L340.39 278.00 L340.89 277.00 L341.39 276.00 L341.89 275.00 L342.39 274.00 L342.89 273.00 L343.39 272.00 L343.89 271.00 L344.39 270.00 L344.89 269.00 L345.39 268.00 L345.89 267.00 L346.39 266.00 L346.89 265.00 L347.39 264.00 L347.89 263.00 L348.39 262.00 L348.89 261.00 L349.39 260.00 L349.89 259.00 L350.39 258.00 L350.89 257.00 L351.39 256.00 L351.89 255.00 L352.39 254.00 L352.89 253.00 L353.39 252.00 L353.89 251.00 L354.39 250.00 L354.89 249.00 L355.39 248.00 L355.89 247.00 L356.39 246.00 L356.89 245.00 L357.39 244.00 L357.89 243.00 L358.39 242.00 L358.89 241.00 L359.39 240.00 L359.89 239.00 L360.39 238.00 L360.89 237.00 L361.39 236.00 L361.89 235.00 L362.39 234.00 L362.89 233.00 L363.39 232.00 L363.89 231.00 L364.39 230.00 L364.89 229.00 L365.39 228.00 L365.89 227.00 L366.39 226.00 L366.89 225.00 L367.39 224.00 L367.89 223.00 L368.39 222.00 L368.89 221.00 L369.39 220.00 L369.89 219.00 L370.39 218.00 L370.89 217.00 L371.39 216.00 L371.89 215.00 L372.39 214.00 L372.89 213.00 L373.39 212.00 L373.89 211.00 L374.39 210.00 L374.89 209.00 L375.39 208.00 L375.89 207.00 L376.39 206.00 L376.89 205.00 L377.39 204.00 L377.89 203.00 L378.39 202.00 L378.89 201.00 L379.39 200.00 L379.89 199.00 L380.39 198.00 L380.89 197.00 L381.39 196.00 L381.89 195.00 L382.39 194.00 L382.89 193.00 L383.39 192.00 L383.89 191.00 L384.39 190.00 L384.89 189.00 L385.39 188.00 L385.89 187.00 L386.39 186.00 L386.89 185.00 L387.39 184.00 L387.89 183.00 L388.39 182.00 L388.89 181.00 L389.39 180.00 L389.89 179.00 L390.39 178.00 L390.89 177.00 L391.39 176.00 L391.89 175.00 L392.39 174.00 L392.89 173.00 L393.39 172.00 L393.89 171.00 L394.39 170.00 L394.89 169.00 L395.39 168.00 L395.89 167.00 L396.39 166.00 L396.89 165.00 L397.39 164.00 L397.89 163.00 L398.39 162.00 L398.89 161.00 L399.39 160.00 L399.89 159.00 L400.39 158.00 L400.89 157.00 L401.39 156.00 L401.89 155.00 L402.39 154.00 L402.89 153.00 L403.39 152.00 L403.89 151.00 L404.39 150.00 L404.89 149.00 L405.39 148.00 L405.89 147.00 L406.39 146.00 L406.89 145.00 L407.39 144.00 L407.89 143.00 L408.39 142.00 L408.89 141.00 L409.39 140.00 L409.89 139.00 L410.39 138.00 L410.89 137.00 L411.39 136.00 L411.89 135.00 L412.39 134.00 L412.89 133.00 L413.39 132.00 L413.89 131.00 L414.39 130.00 L414.89 129.00 L415.39 128.00 L415.89 127.00 L416.39 126.00 L416.89 125.00 L417.39 124.00 L417.89 123.00 L418.39 122.00 L418.89 121.00 L419.39 120.00 L419.89 119.00 L420.39 118.00 L420.89 117.00 L421.39 116.00 L421.89 115.00 L422.39 114.00 L422.89 113.00 L423.39 112.00 L423.89 111.00 L424.39 110.00 L424.89 109.00 L425.39 108.00 L425.89 107.00 L426.39 106.00 L426.89 105.00 L427.39 104.00 L427.89 103.00 L428.39 102.00 L428.89 101.00 L429.39 100.00 L429.89 99.00 L430.39 98.00 L430.89 97.00 L431.39 96.00 L431.89 95.00 L432.39 94.00 L432.89 93.00 L433.39 92.00 L433.89 91.00 L434.39 90.00 L434.89 89.00 L435.39 88.00 L435.89 87.00 L436.39 86.00 L436.89 85.00 L437.39 84.00 L437.89 83.00 L438.39 82.00 L438.89 81.00 L439.39 80.00 L439.89 79.00 L440.39 78.00 L440.89 77.00 L441.39 76.00 L441.89 75.00 L442.39 74.00 L442.89 73.00 L443.39 72.00 L443.89 71.00 L444.39 70.00 L444.89 69.00 L445.39 68.00 L445.89 67.00 L446.39 66.00 L446.89 65.00 L447.39 64.00 L447.89 63.00 L448.39 62.00 L448.89 61.00 L449.39 60.00 L449.89 59.00 L450.39 58.00 L450.89 57.00 L451.39 56.00 L451.89 55.00 L452.39 54.00 L452.89 53.00 L453.39 52.00 L453.89 51.00 L454.39 50.00 L454.89 49.00 L455.39 48.00 L455.89 47.00 L456.39 46.00 L456.89 45.00 L457.39 44.00 L457.89 43.00 L458.39 42.00 L458.89 41.00 L459.39 40.00 L459.89 39.00 L460.39 38.00 L460.89 37.00 L461.39 36.00 L461.89 35.00 L462.39 34.00 L462.89 33.00 L463.39 32.00 L463.89 31.00 L464.39 30.00 L464.89 29.00 L465.39 28.00 L465.89 27.00 L466.39 26.00 L466.89 25.00 L467.39 24.00 L467.89 23.00 L468.39 22.00 L468.89 21.00 L469.39 20.00 L469.89 19.00 L470.39 18.00 L470.89 17.00 L471.39 16.00 L471.89 15.00 L472.39 14.00 L472.89 13.00 L473.39 12.00 L473.89 11.00 L474.39 10.00 L474.89 9.00 L475.39 8.00 L475.89 7.00 L476.39 6.00 L476.89 5.00 L477.39 4.00 L477.89 3.00 L478.39 2.00 L478.89 1.00 L479.39 -0.00 " style="fill:none;stroke:#000000;stroke-width:1;" /></g></svg>